<?xml version="1.0" encoding="UTF-8"?>
<svg xmlns="http://www.w3.org/2000/svg" xmlns:xlink="http://www.w3.org/1999/xlink" viewBox="0 0 1920 1920">
  <defs>
    <style>
      .cls-1 {
        fill: #393939;
      }

      .cls-2 {
        fill: url(#linear-gradient-5);
      }

      .cls-3 {
        fill: url(#linear-gradient-6);
      }

      .cls-4 {
        fill: url(#linear-gradient-4);
      }

      .cls-5 {
        fill: url(#linear-gradient-3);
      }

      .cls-6 {
        fill: url(#linear-gradient-2);
      }

      .cls-7 {
        fill: url(#linear-gradient);
      }
    </style>
    <linearGradient id="linear-gradient" x1="561.74" y1="1103.49" x2="561.74" y2="741.2" gradientUnits="userSpaceOnUse">
      <stop offset="0" stop-color="#edbfa8"/>
      <stop offset=".24" stop-color="#bb8466"/>
      <stop offset=".52" stop-color="#eec1a2"/>
      <stop offset=".74" stop-color="#bb8466"/>
      <stop offset="1" stop-color="#e2b99d"/>
    </linearGradient>
    <linearGradient id="linear-gradient-2" x1="900.47" y1="1102.11" x2="900.47" y2="740.7" xlink:href="#linear-gradient"/>
    <linearGradient id="linear-gradient-3" x1="1293.54" y1="1165.7" x2="1293.54" y2="732.8" xlink:href="#linear-gradient"/>
    <linearGradient id="linear-gradient-4" x1="1292.91" y1="1129.85" x2="1292.91" y2="706.96" gradientUnits="userSpaceOnUse">
      <stop offset="0" stop-color="#b36e51"/>
      <stop offset=".12" stop-color="#ca9175"/>
      <stop offset=".26" stop-color="#e9bda4"/>
      <stop offset=".3" stop-color="#d7a48b"/>
      <stop offset=".35" stop-color="#c1856c"/>
      <stop offset=".41" stop-color="#b16e55"/>
      <stop offset=".46" stop-color="#a86148"/>
      <stop offset=".5" stop-color="#a55d44"/>
      <stop offset=".69" stop-color="#fff4e2"/>
      <stop offset="1" stop-color="#ebbfa4"/>
    </linearGradient>
    <linearGradient id="linear-gradient-5" x1="899.97" y1="1097.41" x2="899.97" y2="745.52" xlink:href="#linear-gradient-4"/>
    <linearGradient id="linear-gradient-6" x1="561.86" y1="1097.78" x2="561.86" y2="745.45" xlink:href="#linear-gradient-4"/>
  </defs>
  <g id="Layer_3" data-name="Layer 3">
    <rect class="cls-1" x="-35.54" y="-30.26" width="1991.09" height="1980.51"/>
  </g>
  <g id="Layer_2" data-name="Layer 2">
    <g>
      <polygon class="cls-7" points="692.07 803.86 692.07 741.2 431.41 741.2 431.41 1103.49 509.23 1103.49 509.23 960.25 672.77 960.25 672.77 898.97 508.85 898.97 508.85 803.86 692.07 803.86"/>
      <polygon class="cls-6" points="740.82 740.7 740.82 1102.11 822.02 1102.11 822.02 953.23 978.42 953.23 978.42 1102.11 1060.13 1102.11 1060.13 740.7 978.92 740.7 978.92 882.56 821.52 882.56 821.52 740.7 740.82 740.7"/>
      <path class="cls-5" d="M1411.97,1165.7c-38.05,0-75.54-20.88-103.24-57.41-5.62.48-11.32.72-16.97.72-106.56,0-193.26-84.38-193.26-188.1s86.7-188.1,193.26-188.1,193.26,84.38,193.26,188.1c0,35.96-10.46,70.92-30.26,101.09-18.02,27.47-42.96,49.87-72.41,65.1,6.62,6.32,18.35,14.47,34.8,14.47s33.17-13.94,33.34-14.08l4.15-3.55,3.17,4.44,30.77,43.19-2.38,2.95c-1.03,1.27-25.71,31.19-74.24,31.19ZM1290.76,802.19c-64.08,0-116.21,53.81-116.21,119.96s52.13,119.96,116.21,119.96,116.21-53.81,116.21-119.96-52.13-119.96-116.21-119.96Z"/>
      <path class="cls-4" d="M1453.75,1091.27s-17.8,15.29-36.59,15.29c-23.14,0-37.68-14.48-43.03-20.97,62.69-29.72,105.9-92.29,105.9-164.69,0-101.12-84.29-183.1-188.26-183.1s-188.26,81.98-188.26,183.1,84.29,183.1,188.26,183.1c6.52,0,12.96-.32,19.3-.95,23.98,32.65,60.01,57.64,100.91,57.64,46.7,0,70.35-29.32,70.35-29.32l-28.57-40.1ZM1290.76,1047.12c-66.94,0-121.21-55.95-121.21-124.96s54.27-124.96,121.21-124.96,121.21,55.95,121.21,124.96-54.27,124.96-121.21,124.96Z"/>
      <polygon class="cls-2" points="815.26 888.13 815.26 745.52 745.58 745.52 745.58 1097.41 815.26 1097.41 815.26 947.53 984.18 947.53 984.18 1097.41 1054.36 1097.41 1054.36 746.27 984.18 746.27 984.18 888.88 815.26 888.13"/>
      <polygon class="cls-3" points="436.3 1097.78 436.3 745.45 687.43 745.45 687.43 799.08 504.22 799.08 504.22 903.35 667.88 903.35 667.88 955.35 504.34 955.35 504.34 1097.78 436.3 1097.78"/>
    </g>
  </g>
</svg>