<?xml version="1.0" encoding="UTF-8"?>
<svg xmlns="http://www.w3.org/2000/svg" viewBox="0 0 1920 1920">
  <defs>
    <style>
      .cls-1 {
        fill: #393939;
      }

      .cls-2 {
        fill: #fff;
      }
    </style>
  </defs>
  <g id="Layer_3" data-name="Layer 3">
    <rect class="cls-1" x="-41.31" y="-34.31" width="1991.09" height="1980.51"/>
  </g>
  <g id="Layer_2" data-name="Layer 2">
    <g>
      <polygon class="cls-2" points="525.15 798.34 525.15 735.69 264.49 735.69 264.49 1097.98 342.31 1097.98 342.31 954.74 505.85 954.74 505.85 893.46 341.93 893.46 341.93 798.34 525.15 798.34"/>
      <ellipse class="cls-2" cx="604.73" cy="747.69" rx="44.14" ry="40.13"/>
      <rect class="cls-2" x="567.88" y="827.17" width="72.93" height="270.81"/>
      <path class="cls-2" d="M720.77,834.19v-64.16h72.43v64.16h63.66v55.39h-63.41v125.18c0,22.35,23.68,36.75,43.52,26.48l13.12-6.79,20.55,48.12s-21.3,19.8-63.16,19.8-86.47-17.54-86.47-99v-113.79h-41.35v-55.39h41.1Z"/>
      <polygon class="cls-2" points="907.74 735.18 907.74 1096.6 988.95 1096.6 988.95 947.72 1145.34 947.72 1145.34 1096.6 1227.05 1096.6 1227.05 735.18 1145.84 735.18 1145.84 877.04 988.44 877.04 988.44 735.18 907.74 735.18"/>
      <path class="cls-2" d="M1578.89,1160.19c-38.05,0-75.54-20.88-103.24-57.41-5.62.48-11.32.72-16.97.72-106.56,0-193.26-84.38-193.26-188.1s86.7-188.1,193.26-188.1,193.26,84.38,193.26,188.1c0,35.96-10.46,70.92-30.26,101.09-18.02,27.47-42.96,49.87-72.41,65.1,6.62,6.32,18.35,14.47,34.8,14.47s33.17-13.94,33.34-14.08l4.15-3.55,3.17,4.44,30.77,43.19-2.38,2.95c-1.03,1.27-25.71,31.19-74.24,31.19ZM1457.68,796.68c-64.08,0-116.21,53.81-116.21,119.96s52.13,119.96,116.21,119.96,116.21-53.81,116.21-119.96-52.13-119.96-116.21-119.96Z"/>
    </g>
  </g>
</svg>