<?xml version="1.0" encoding="UTF-8"?>
<svg id="Layer_2" data-name="Layer 2" xmlns="http://www.w3.org/2000/svg" xmlns:xlink="http://www.w3.org/1999/xlink" viewBox="0 0 1920 1920">
  <defs>
    <style>
      .cls-1 {
        fill: #3c3c3c;
      }

      .cls-2 {
        fill: url(#linear-gradient-4);
      }

      .cls-3 {
        fill: url(#linear-gradient-3);
      }

      .cls-4 {
        fill: url(#linear-gradient-2);
      }

      .cls-5 {
        fill: url(#linear-gradient);
      }
    </style>
    <linearGradient id="linear-gradient" x1="1067.39" y1="1111.97" x2="1067.39" y2="750.56" gradientUnits="userSpaceOnUse">
      <stop offset="0" stop-color="#edbfa8"/>
      <stop offset=".24" stop-color="#bb8466"/>
      <stop offset=".52" stop-color="#eec1a2"/>
      <stop offset=".74" stop-color="#bb8466"/>
      <stop offset="1" stop-color="#e2b99d"/>
    </linearGradient>
    <linearGradient id="linear-gradient-2" x1="1460.47" y1="1175.56" x2="1460.47" y2="742.66" xlink:href="#linear-gradient"/>
    <linearGradient id="linear-gradient-3" x1="1459.83" y1="1139.71" x2="1459.83" y2="716.82" gradientUnits="userSpaceOnUse">
      <stop offset="0" stop-color="#b36e51"/>
      <stop offset=".12" stop-color="#ca9175"/>
      <stop offset=".26" stop-color="#e9bda4"/>
      <stop offset=".3" stop-color="#d7a48b"/>
      <stop offset=".35" stop-color="#c1856c"/>
      <stop offset=".41" stop-color="#b16e55"/>
      <stop offset=".46" stop-color="#a86148"/>
      <stop offset=".5" stop-color="#a55d44"/>
      <stop offset=".69" stop-color="#fff4e2"/>
      <stop offset="1" stop-color="#ebbfa4"/>
    </linearGradient>
    <linearGradient id="linear-gradient-4" x1="1066.89" y1="1107.27" x2="1066.89" y2="755.38" xlink:href="#linear-gradient-3"/>
  </defs>
  <polygon class="cls-1" points="525.15 813.72 525.15 751.06 264.49 751.06 264.49 1113.35 342.31 1113.35 342.31 970.11 505.85 970.11 505.85 908.83 341.93 908.83 341.93 813.72 525.15 813.72"/>
  <ellipse class="cls-1" cx="604.73" cy="763.07" rx="44.14" ry="40.13"/>
  <rect class="cls-1" x="567.88" y="842.54" width="72.93" height="270.81"/>
  <path class="cls-1" d="M720.77,849.56v-64.16h72.43v64.16h63.66v55.39h-63.41v125.18c0,22.35,23.68,36.75,43.52,26.48l13.12-6.79,20.55,48.12s-21.3,19.8-63.16,19.8-86.47-17.54-86.47-99v-113.79h-41.35v-55.39h41.1Z"/>
  <polygon class="cls-5" points="907.74 750.56 907.74 1111.97 988.95 1111.97 988.95 963.1 1145.34 963.1 1145.34 1111.97 1227.05 1111.97 1227.05 750.56 1145.84 750.56 1145.84 892.42 988.44 892.42 988.44 750.56 907.74 750.56"/>
  <path class="cls-4" d="M1578.89,1175.56c-38.05,0-75.54-20.88-103.24-57.41-5.62.48-11.32.72-16.97.72-106.56,0-193.26-84.38-193.26-188.1s86.7-188.1,193.26-188.1,193.26,84.38,193.26,188.1c0,35.96-10.46,70.92-30.26,101.09-18.02,27.47-42.96,49.87-72.41,65.1,6.62,6.32,18.35,14.47,34.8,14.47s33.17-13.94,33.34-14.08l4.15-3.55,3.17,4.44,30.77,43.19-2.38,2.95c-1.03,1.27-25.71,31.19-74.24,31.19ZM1457.68,812.05c-64.08,0-116.21,53.81-116.21,119.96s52.13,119.96,116.21,119.96,116.21-53.81,116.21-119.96-52.13-119.96-116.21-119.96Z"/>
  <path class="cls-3" d="M1620.67,1101.13s-17.8,15.29-36.59,15.29c-23.14,0-37.68-14.48-43.03-20.97,62.69-29.72,105.9-92.29,105.9-164.69,0-101.12-84.29-183.1-188.26-183.1s-188.26,81.98-188.26,183.1,84.29,183.1,188.26,183.1c6.52,0,12.96-.32,19.3-.95,23.98,32.65,60.01,57.64,100.91,57.64,46.7,0,70.35-29.32,70.35-29.32l-28.57-40.1ZM1457.68,1056.98c-66.94,0-121.21-55.95-121.21-124.96s54.27-124.96,121.21-124.96,121.21,55.95,121.21,124.96-54.27,124.96-121.21,124.96Z"/>
  <polygon class="cls-2" points="982.18 897.99 982.18 755.38 912.5 755.38 912.5 1107.27 982.18 1107.27 982.18 957.39 1151.11 957.39 1151.11 1107.27 1221.28 1107.27 1221.28 756.13 1151.11 756.13 1151.11 898.75 982.18 897.99"/>
</svg>