<?xml version="1.0" encoding="UTF-8"?>
<svg id="Layer_2" data-name="Layer 2" xmlns="http://www.w3.org/2000/svg" viewBox="0 0 1920 1920">
  <defs>
    <style>
      .cls-1 {
        fill: #393939;
      }
    </style>
  </defs>
  <polygon class="cls-1" points="692.07 796.29 692.07 733.63 431.41 733.63 431.41 1095.93 509.23 1095.93 509.23 952.69 672.77 952.69 672.77 891.41 508.85 891.41 508.85 796.29 692.07 796.29"/>
  <polygon class="cls-1" points="740.82 733.13 740.82 1094.55 822.02 1094.55 822.02 945.67 978.42 945.67 978.42 1094.55 1060.13 1094.55 1060.13 733.13 978.92 733.13 978.92 874.99 821.52 874.99 821.52 733.13 740.82 733.13"/>
  <path class="cls-1" d="M1411.97,1158.13c-38.05,0-75.54-20.88-103.24-57.41-5.62.48-11.32.72-16.97.72-106.56,0-193.26-84.38-193.26-188.1s86.7-188.1,193.26-188.1,193.26,84.38,193.26,188.1c0,35.96-10.46,70.92-30.26,101.09-18.02,27.47-42.96,49.87-72.41,65.1,6.62,6.32,18.35,14.47,34.8,14.47s33.17-13.94,33.34-14.08l4.15-3.55,3.17,4.44,30.77,43.19-2.38,2.95c-1.03,1.27-25.71,31.19-74.24,31.19ZM1290.76,794.63c-64.08,0-116.21,53.81-116.21,119.96s52.13,119.96,116.21,119.96,116.21-53.81,116.21-119.96-52.13-119.96-116.21-119.96Z"/>
</svg>