<?xml version="1.0" encoding="UTF-8"?>
<svg xmlns="http://www.w3.org/2000/svg" viewBox="0 0 1920 1920">
  <defs>
    <style>
      .cls-1 {
        fill: #393939;
      }

      .cls-2 {
        fill: #cc8c70;
      }
    </style>
  </defs>
  <g id="Layer_3" data-name="Layer 3">
    <rect class="cls-1" x="-35.54" y="-30.26" width="1991.09" height="1980.51"/>
  </g>
  <g id="Layer_2" data-name="Layer 2">
    <g>
      <polygon class="cls-2" points="692.07 811.25 692.07 748.59 431.41 748.59 431.41 1110.89 509.23 1110.89 509.23 967.65 672.77 967.65 672.77 906.37 508.85 906.37 508.85 811.25 692.07 811.25"/>
      <polygon class="cls-2" points="740.82 748.09 740.82 1109.51 822.02 1109.51 822.02 960.63 978.42 960.63 978.42 1109.51 1060.13 1109.51 1060.13 748.09 978.92 748.09 978.92 889.95 821.52 889.95 821.52 748.09 740.82 748.09"/>
      <path class="cls-2" d="M1411.97,1173.09c-38.05,0-75.54-20.88-103.24-57.41-5.62.48-11.32.72-16.97.72-106.56,0-193.26-84.38-193.26-188.1s86.7-188.1,193.26-188.1,193.26,84.38,193.26,188.1c0,35.96-10.46,70.92-30.26,101.09-18.02,27.47-42.96,49.87-72.41,65.1,6.62,6.32,18.35,14.47,34.8,14.47s33.17-13.94,33.34-14.08l4.15-3.55,3.17,4.44,30.77,43.19-2.38,2.95c-1.03,1.27-25.71,31.19-74.24,31.19ZM1290.76,809.59c-64.08,0-116.21,53.81-116.21,119.96s52.13,119.96,116.21,119.96,116.21-53.81,116.21-119.96-52.13-119.96-116.21-119.96Z"/>
    </g>
  </g>
</svg>