<?xml version="1.0" encoding="UTF-8"?>
<svg xmlns="http://www.w3.org/2000/svg" xmlns:xlink="http://www.w3.org/1999/xlink" viewBox="0 0 1920 1080">
  <defs>
    <style>
      .cls-1 {
        fill: #393939;
      }

      .cls-2 {
        fill: url(#linear-gradient-5);
      }

      .cls-3 {
        fill: url(#linear-gradient-6);
      }

      .cls-4 {
        fill: url(#linear-gradient-4);
      }

      .cls-5 {
        fill: url(#linear-gradient-3);
      }

      .cls-6 {
        fill: url(#linear-gradient-2);
      }

      .cls-7 {
        fill: url(#linear-gradient);
      }
    </style>
    <linearGradient id="linear-gradient" x1="561.74" y1="694.24" x2="561.74" y2="331.95" gradientUnits="userSpaceOnUse">
      <stop offset="0" stop-color="#edbfa8"/>
      <stop offset=".24" stop-color="#bb8466"/>
      <stop offset=".52" stop-color="#eec1a2"/>
      <stop offset=".74" stop-color="#bb8466"/>
      <stop offset="1" stop-color="#e2b99d"/>
    </linearGradient>
    <linearGradient id="linear-gradient-2" x1="900.47" y1="692.86" x2="900.47" y2="331.45" xlink:href="#linear-gradient"/>
    <linearGradient id="linear-gradient-3" x1="1293.54" y1="756.45" x2="1293.54" y2="323.55" xlink:href="#linear-gradient"/>
    <linearGradient id="linear-gradient-4" x1="1292.91" y1="720.6" x2="1292.91" y2="297.71" gradientUnits="userSpaceOnUse">
      <stop offset="0" stop-color="#b36e51"/>
      <stop offset=".12" stop-color="#ca9175"/>
      <stop offset=".26" stop-color="#e9bda4"/>
      <stop offset=".3" stop-color="#d7a48b"/>
      <stop offset=".35" stop-color="#c1856c"/>
      <stop offset=".41" stop-color="#b16e55"/>
      <stop offset=".46" stop-color="#a86148"/>
      <stop offset=".5" stop-color="#a55d44"/>
      <stop offset=".69" stop-color="#fff4e2"/>
      <stop offset="1" stop-color="#ebbfa4"/>
    </linearGradient>
    <linearGradient id="linear-gradient-5" x1="899.97" y1="688.16" x2="899.97" y2="336.27" xlink:href="#linear-gradient-4"/>
    <linearGradient id="linear-gradient-6" x1="561.86" y1="688.53" x2="561.86" y2="336.2" xlink:href="#linear-gradient-4"/>
  </defs>
  <g id="Layer_3" data-name="Layer 3">
    <rect class="cls-1" x="-35.54" y="-49.49" width="1991.09" height="1178.98"/>
  </g>
  <g id="Layer_2" data-name="Layer 2">
    <g>
      <polygon class="cls-7" points="692.07 394.61 692.07 331.95 431.41 331.95 431.41 694.24 509.23 694.24 509.23 551 672.77 551 672.77 489.72 508.85 489.72 508.85 394.61 692.07 394.61"/>
      <polygon class="cls-6" points="740.82 331.45 740.82 692.86 822.02 692.86 822.02 543.99 978.42 543.99 978.42 692.86 1060.13 692.86 1060.13 331.45 978.92 331.45 978.92 473.31 821.52 473.31 821.52 331.45 740.82 331.45"/>
      <path class="cls-5" d="M1411.97,756.45c-38.05,0-75.54-20.88-103.24-57.41-5.62.48-11.32.72-16.97.72-106.56,0-193.26-84.38-193.26-188.1s86.7-188.1,193.26-188.1,193.26,84.38,193.26,188.1c0,35.96-10.46,70.92-30.26,101.09-18.02,27.47-42.96,49.87-72.41,65.1,6.62,6.32,18.35,14.47,34.8,14.47s33.17-13.94,33.34-14.08l4.15-3.55,3.17,4.44,30.77,43.19-2.38,2.95c-1.03,1.27-25.71,31.19-74.24,31.19ZM1290.76,392.94c-64.08,0-116.21,53.81-116.21,119.96s52.13,119.96,116.21,119.96,116.21-53.81,116.21-119.96-52.13-119.96-116.21-119.96Z"/>
      <path class="cls-4" d="M1453.75,682.02s-17.8,15.29-36.59,15.29c-23.14,0-37.68-14.48-43.03-20.97,62.69-29.72,105.9-92.29,105.9-164.69,0-101.12-84.29-183.1-188.26-183.1s-188.26,81.98-188.26,183.1,84.29,183.1,188.26,183.1c6.52,0,12.96-.32,19.3-.95,23.98,32.65,60.01,57.64,100.91,57.64,46.7,0,70.35-29.32,70.35-29.32l-28.57-40.1ZM1290.76,637.87c-66.94,0-121.21-55.95-121.21-124.96s54.27-124.96,121.21-124.96,121.21,55.95,121.21,124.96-54.27,124.96-121.21,124.96Z"/>
      <polygon class="cls-2" points="815.26 478.88 815.26 336.27 745.58 336.27 745.58 688.16 815.26 688.16 815.26 538.28 984.18 538.28 984.18 688.16 1054.36 688.16 1054.36 337.02 984.18 337.02 984.18 479.64 815.26 478.88"/>
      <polygon class="cls-3" points="436.3 688.53 436.3 336.2 687.43 336.2 687.43 389.83 504.22 389.83 504.22 494.1 667.88 494.1 667.88 546.1 504.34 546.1 504.34 688.53 436.3 688.53"/>
    </g>
  </g>
</svg>