<?xml version="1.0" encoding="UTF-8"?>
<svg xmlns="http://www.w3.org/2000/svg" viewBox="0 0 1920 1080">
  <defs>
    <style>
      .cls-1 {
        fill: #393939;
      }

      .cls-2 {
        fill: #fff;
      }
    </style>
  </defs>
  <g id="Layer_3" data-name="Layer 3">
    <rect class="cls-1" x="-35.54" y="-43.96" width="1991.09" height="1178.98"/>
  </g>
  <g id="Layer_2" data-name="Layer 2">
    <g>
      <polygon class="cls-2" points="692.07 394.61 692.07 331.95 431.41 331.95 431.41 694.24 509.23 694.24 509.23 551 672.77 551 672.77 489.72 508.85 489.72 508.85 394.61 692.07 394.61"/>
      <polygon class="cls-2" points="740.82 331.45 740.82 692.86 822.02 692.86 822.02 543.99 978.42 543.99 978.42 692.86 1060.13 692.86 1060.13 331.45 978.92 331.45 978.92 473.31 821.52 473.31 821.52 331.45 740.82 331.45"/>
      <path class="cls-2" d="M1411.97,756.45c-38.05,0-75.54-20.88-103.24-57.41-5.62.48-11.32.72-16.97.72-106.56,0-193.26-84.38-193.26-188.1s86.7-188.1,193.26-188.1,193.26,84.38,193.26,188.1c0,35.96-10.46,70.92-30.26,101.09-18.02,27.47-42.96,49.87-72.41,65.1,6.62,6.32,18.35,14.47,34.8,14.47s33.17-13.94,33.34-14.08l4.15-3.55,3.17,4.44,30.77,43.19-2.38,2.95c-1.03,1.27-25.71,31.19-74.24,31.19ZM1290.76,392.94c-64.08,0-116.21,53.81-116.21,119.96s52.13,119.96,116.21,119.96,116.21-53.81,116.21-119.96-52.13-119.96-116.21-119.96Z"/>
    </g>
  </g>
</svg>